<svg width="343" height="59" viewBox="0 0 343 59" fill="none" xmlns="http://www.w3.org/2000/svg">
<rect x="0.5" y="0.5" width="342" height="58" rx="9.5" fill="#ECEBE4"/>
<rect x="0.5" y="0.5" width="342" height="58" rx="9.5" stroke="#D5D5D5"/>
<path d="M168.916 27.7031H171.359V29.3027H168.916V37.582H166.965V21.6738H168.916V27.7031ZM164.557 24.7676H159.072V32.0625C160.355 32.0625 161.513 32.0244 162.544 31.9482C163.575 31.8721 164.621 31.7402 165.682 31.5527L165.91 33.2051C164.762 33.4043 163.625 33.5361 162.5 33.6006C161.381 33.665 160.027 33.6973 158.439 33.6973H157.121V23.1855H164.557V24.7676ZM179.252 21.9902C180.418 21.9902 181.429 22.1133 182.284 22.3594C183.146 22.6055 183.808 22.9629 184.271 23.4316C184.739 23.8945 184.977 24.4453 184.982 25.084C184.977 25.7109 184.739 26.2529 184.271 26.71C183.808 27.167 183.146 27.5156 182.284 27.7559C181.429 27.9961 180.418 28.1133 179.252 28.1074C178.098 28.1133 177.087 27.9961 176.22 27.7559C175.358 27.5156 174.693 27.167 174.225 26.71C173.756 26.2529 173.521 25.7109 173.521 25.084C173.521 24.4453 173.756 23.8945 174.225 23.4316C174.693 22.9629 175.358 22.6055 176.22 22.3594C177.087 22.1133 178.098 21.9902 179.252 21.9902ZM179.252 23.5195C178.08 23.5195 177.169 23.6543 176.519 23.9238C175.874 24.1934 175.555 24.5801 175.561 25.084C175.555 25.5645 175.874 25.9336 176.519 26.1914C177.169 26.4492 178.08 26.584 179.252 26.5957C180.424 26.584 181.335 26.4492 181.985 26.1914C182.636 25.9336 182.961 25.5645 182.961 25.084C182.961 24.5801 182.636 24.1934 181.985 23.9238C181.335 23.6543 180.424 23.5195 179.252 23.5195ZM184.754 37.3711H173.732V32.0273H184.754V37.3711ZM175.666 35.7891H182.855V33.5742H175.666V35.7891ZM186.512 30.7617H172.027V29.1797H186.512V30.7617Z" fill="black"/>
</svg>
