<svg width="64" height="32" viewBox="0 0 64 32" fill="none" xmlns="http://www.w3.org/2000/svg">
<rect x="0.5" y="0.5" width="63" height="31" rx="9.5" fill="#ECEBE4"/>
<rect x="0.5" y="0.5" width="63" height="31" rx="9.5" stroke="#D5D5D5"/>
<path d="M21.2188 17.7383H16.9766V21.0078H15.875V17.7383H11.6445V16.8242H21.2188V17.7383ZM20.3047 12.6641H16.9883C17.0078 13.0469 17.1816 13.418 17.5098 13.7773C17.8379 14.1367 18.2773 14.4453 18.8281 14.7031C19.3789 14.957 19.9805 15.125 20.6328 15.207L20.2344 16.0977C19.3906 15.9805 18.6309 15.7363 17.9551 15.3652C17.2793 14.9902 16.7715 14.5352 16.4316 14C16.0918 14.5391 15.582 14.9941 14.9023 15.3652C14.2266 15.7363 13.4648 15.9805 12.6172 16.0977L12.207 15.207C12.8633 15.125 13.4668 14.957 14.0176 14.7031C14.5684 14.4492 15.0098 14.1445 15.3418 13.7891C15.6738 13.4297 15.8516 13.0547 15.875 12.6641H12.5469V11.7617H15.875V10.4961H16.9766V11.7617H20.3047V12.6641ZM30.1953 14.6797H31.8242V15.6055H30.1953V20.9844H29.082V10.4961H30.1953V14.6797ZM27.4531 11.5977C27.4453 13.1992 27.0566 14.6367 26.2871 15.9102C25.5176 17.1836 24.3047 18.2305 22.6484 19.0508L22.0273 18.1836C23.3398 17.5273 24.3535 16.7266 25.0684 15.7812C25.7871 14.8359 26.2031 13.75 26.3164 12.5234H22.5547V11.5977H27.4531ZM40.5664 14.75H42.2539V15.6758H40.5664V20.9961H39.4648V10.4961H40.5664V14.75ZM38.5508 13.0508H32.3281V12.1367H34.918V10.6367H36.0312V12.1367H38.5508V13.0508ZM35.4805 13.8242C35.9766 13.8242 36.4219 13.9277 36.8164 14.1348C37.2109 14.3418 37.5215 14.6309 37.748 15.002C37.9746 15.373 38.0898 15.793 38.0938 16.2617C38.0898 16.7344 37.9746 17.1562 37.748 17.5273C37.5215 17.8984 37.2109 18.1875 36.8164 18.3945C36.4219 18.6016 35.9766 18.707 35.4805 18.7109C34.9805 18.707 34.5312 18.6016 34.1328 18.3945C33.7383 18.1875 33.4277 17.8984 33.2012 17.5273C32.9785 17.1562 32.8672 16.7344 32.8672 16.2617C32.8672 15.793 32.9785 15.373 33.2012 15.002C33.4277 14.6309 33.7383 14.3418 34.1328 14.1348C34.5312 13.9277 34.9805 13.8242 35.4805 13.8242ZM35.4805 14.7383C35.1875 14.7383 34.9219 14.8027 34.6836 14.9316C34.4453 15.0605 34.2598 15.2402 34.127 15.4707C33.9941 15.7012 33.9297 15.9648 33.9336 16.2617C33.9297 16.5625 33.9941 16.8281 34.127 17.0586C34.2598 17.2891 34.4434 17.4668 34.6777 17.5918C34.916 17.7168 35.1836 17.7773 35.4805 17.7734C35.7734 17.7773 36.0371 17.7168 36.2715 17.5918C36.5098 17.4668 36.6953 17.2891 36.8281 17.0586C36.9609 16.8281 37.0273 16.5625 37.0273 16.2617C37.0273 15.9648 36.9609 15.7012 36.8281 15.4707C36.6953 15.2402 36.5098 15.0605 36.2715 14.9316C36.0371 14.8027 35.7734 14.7383 35.4805 14.7383ZM51.4883 20.9961H50.3633V10.4961H51.4883V20.9961ZM48.3594 11.6211C48.3594 13.2461 47.9707 14.6914 47.1934 15.957C46.4199 17.2188 45.1719 18.2617 43.4492 19.0859L42.8633 18.1836C44.2422 17.5273 45.2871 16.7285 45.998 15.7871C46.7129 14.8457 47.125 13.7539 47.2344 12.5117H43.3672V11.6211H48.3594Z" fill="black"/>
</svg>
