<svg width="343" height="59" viewBox="0 0 343 59" fill="none" xmlns="http://www.w3.org/2000/svg">
<rect width="343" height="59" rx="10" fill="#366943"/>
<path d="M163.212 35.7188H148.692V34.1016H154.95V31.5176H150.415V26.3145H159.556V24.3457H150.38V22.7637H161.489V27.8613H152.366V29.918H161.858V31.5176H156.884V34.1016H163.212V35.7188ZM176.888 25.0137C176.888 25.9629 176.876 26.7803 176.853 27.4658C176.835 28.1455 176.785 28.9248 176.703 29.8037C176.621 30.6826 176.489 31.6406 176.308 32.6777L174.321 32.502C174.515 31.5352 174.655 30.6211 174.743 29.7598C174.831 28.8926 174.884 28.1191 174.901 27.4395C174.925 26.7539 174.937 25.9453 174.937 25.0137V24.8027H165.778V23.2207H176.888V25.0137ZM178.733 35.3848H164.249V33.7852H178.733V35.3848ZM193.042 33.1699H191.073V21.6914H193.042V33.1699ZM193.481 37.248H182.53V32.0098H184.499V35.666H193.481V37.248ZM184.376 22.7285C185.173 22.7285 185.896 22.9014 186.547 23.2471C187.197 23.5869 187.71 24.0586 188.085 24.6621C188.46 25.2656 188.647 25.9453 188.647 26.7012C188.647 27.4688 188.46 28.1572 188.085 28.7666C187.71 29.3701 187.197 29.8418 186.547 30.1816C185.896 30.5215 185.173 30.6914 184.376 30.6914C183.573 30.6914 182.844 30.5215 182.188 30.1816C181.537 29.8418 181.024 29.3701 180.649 28.7666C180.274 28.1572 180.087 27.4688 180.087 26.7012C180.087 25.9453 180.274 25.2656 180.649 24.6621C181.024 24.0586 181.537 23.5869 182.188 23.2471C182.844 22.9014 183.573 22.7285 184.376 22.7285ZM184.376 24.4336C183.925 24.4336 183.518 24.5273 183.154 24.7148C182.791 24.9023 182.507 25.1689 182.302 25.5146C182.097 25.8604 181.997 26.2559 182.003 26.7012C181.997 27.1582 182.097 27.5596 182.302 27.9053C182.507 28.251 182.791 28.5176 183.154 28.7051C183.518 28.8926 183.925 28.9863 184.376 28.9863C184.815 28.9863 185.214 28.8926 185.571 28.7051C185.929 28.5176 186.21 28.251 186.415 27.9053C186.626 27.5596 186.731 27.1582 186.731 26.7012C186.731 26.2559 186.626 25.8604 186.415 25.5146C186.21 25.1689 185.929 24.9023 185.571 24.7148C185.214 24.5273 184.815 24.4336 184.376 24.4336Z" fill="white"/>
</svg>
