<svg width="41" height="40" viewBox="0 0 41 40" fill="none" xmlns="http://www.w3.org/2000/svg">
<mask id="mask0_57_8387" style="mask-type:luminance" maskUnits="userSpaceOnUse" x="4" y="24" width="27" height="13">
<path fill-rule="evenodd" clip-rule="evenodd" d="M4.29248 24.0933H30.5491V36.3248H4.29248V24.0933Z" fill="white"/>
</mask>
<g mask="url(#mask0_57_8387)">
<path fill-rule="evenodd" clip-rule="evenodd" d="M17.4208 26.5933C10.3691 26.5933 6.79248 27.8049 6.79248 30.1916C6.79248 32.6016 10.3691 33.8249 17.4208 33.8249C24.4725 33.8249 28.0491 32.6133 28.0491 30.2283C28.0491 27.8149 24.4725 26.5933 17.4208 26.5933ZM17.4208 36.3249C14.1741 36.3249 4.29248 36.3249 4.29248 30.1916C4.29248 24.7249 11.7841 24.0933 17.4208 24.0933C20.6675 24.0933 30.5491 24.0933 30.5491 30.2283C30.5491 35.6933 23.0575 36.3249 17.4208 36.3249Z" fill="#B2B3B4"/>
</g>
<path fill-rule="evenodd" clip-rule="evenodd" d="M17.4208 5.8335C13.9141 5.8335 11.0591 8.6885 11.0591 12.1968C11.0525 13.8952 11.7058 15.4868 12.8975 16.6885C14.0908 17.8885 15.6808 18.5535 17.3741 18.5602L17.4208 19.8102V18.5602C20.9291 18.5602 23.7841 15.7052 23.7841 12.1968C23.7841 8.6885 20.9291 5.8335 17.4208 5.8335ZM17.4208 21.0602H17.3691C15.0041 21.0518 12.7875 20.1235 11.1258 18.4502C9.46247 16.7752 8.55081 14.5518 8.55914 12.1918C8.55914 7.31016 12.5341 3.3335 17.4208 3.3335C22.3091 3.3335 26.2841 7.31016 26.2841 12.1968C26.2841 17.0835 22.3091 21.0602 17.4208 21.0602Z" fill="#B2B3B4"/>
<path fill-rule="evenodd" clip-rule="evenodd" d="M32.9658 22.3828C32.2758 22.3828 31.7158 21.8228 31.7158 21.1328V14.4478C31.7158 13.7578 32.2758 13.1978 32.9658 13.1978C33.6558 13.1978 34.2158 13.7578 34.2158 14.4478V21.1328C34.2158 21.8228 33.6558 22.3828 32.9658 22.3828Z" fill="#B2B3B4"/>
<path fill-rule="evenodd" clip-rule="evenodd" d="M36.3757 19.04H29.5591C28.8691 19.04 28.3091 18.48 28.3091 17.79C28.3091 17.1 28.8691 16.54 29.5591 16.54H36.3757C37.0657 16.54 37.6257 17.1 37.6257 17.79C37.6257 18.48 37.0657 19.04 36.3757 19.04Z" fill="#B2B3B4"/>
</svg>
