<svg width="41" height="40" viewBox="0 0 41 40" fill="none" xmlns="http://www.w3.org/2000/svg">
<mask id="mask0_57_2922" style="mask-type:luminance" maskUnits="userSpaceOnUse" x="2" y="1" width="37" height="37">
<path fill-rule="evenodd" clip-rule="evenodd" d="M2.62549 1.66699H38.4472V37.49H2.62549V1.66699Z" fill="white"/>
</mask>
<g mask="url(#mask0_57_2922)">
<path fill-rule="evenodd" clip-rule="evenodd" d="M11.1396 32.792C12.1062 32.792 13.0179 33.1587 13.9829 33.547C19.8946 36.2803 26.8862 35.037 31.4412 30.4837C37.4512 24.4703 37.4512 14.6887 31.4412 8.67866C28.5312 5.76866 24.6612 4.16699 20.5412 4.16699C16.4195 4.16699 12.5479 5.77033 9.63955 8.68033C5.08288 13.2337 3.84288 20.2253 6.55122 26.0803C6.94122 27.0453 7.31788 27.9853 7.31788 28.962C7.31788 29.937 6.98288 30.9187 6.68788 31.7853C6.44455 32.4987 6.07622 33.5753 6.31288 33.812C6.54455 34.052 7.62788 33.6737 8.34288 33.4287C9.20122 33.1353 10.1746 32.7987 11.1396 32.792ZM20.4995 37.4903C17.9529 37.4903 15.3896 36.952 12.9912 35.842C12.2846 35.5587 11.6229 35.292 11.1479 35.292C10.6012 35.2953 9.86622 35.5487 9.15622 35.7937C7.69955 36.2937 5.88622 36.917 4.54455 35.5803C3.20788 34.242 3.82455 32.4337 4.32122 30.9787C4.56622 30.262 4.81788 29.522 4.81788 28.962C4.81788 28.502 4.59622 27.9153 4.25622 27.0703C1.13455 20.3287 2.57788 12.2037 7.87288 6.91199C11.2529 3.53033 15.7512 1.66699 20.5396 1.66699C25.3279 1.66699 29.8279 3.52866 33.2079 6.91033C40.1946 13.897 40.1946 25.2637 33.2079 32.2503C29.7829 35.677 25.1712 37.4903 20.4995 37.4903Z" fill="#B2B3B4"/>
</g>
<path fill-rule="evenodd" clip-rule="evenodd" d="M27.1191 21.9378C26.1991 21.9378 25.4458 21.1928 25.4458 20.2712C25.4458 19.3495 26.1841 18.6045 27.1041 18.6045H27.1191C28.0391 18.6045 28.7858 19.3495 28.7858 20.2712C28.7858 21.1928 28.0391 21.9378 27.1191 21.9378Z" fill="#B2B3B4"/>
<path fill-rule="evenodd" clip-rule="evenodd" d="M20.438 21.9378C19.518 21.9378 18.7646 21.1928 18.7646 20.2712C18.7646 19.3495 19.5013 18.6045 20.423 18.6045H20.438C21.358 18.6045 22.1046 19.3495 22.1046 20.2712C22.1046 21.1928 21.358 21.9378 20.438 21.9378Z" fill="#B2B3B4"/>
<path fill-rule="evenodd" clip-rule="evenodd" d="M13.7559 21.9378C12.8359 21.9378 12.0825 21.1928 12.0825 20.2712C12.0825 19.3495 12.8209 18.6045 13.7409 18.6045H13.7559C14.6759 18.6045 15.4225 19.3495 15.4225 20.2712C15.4225 21.1928 14.6759 21.9378 13.7559 21.9378Z" fill="#B2B3B4"/>
</svg>
