<svg width="41" height="40" viewBox="0 0 41 40" fill="none" xmlns="http://www.w3.org/2000/svg">
<path fill-rule="evenodd" clip-rule="evenodd" d="M35.4034 16.5078H5.69678C5.00678 16.5078 4.44678 15.9478 4.44678 15.2578C4.44678 14.5678 5.00678 14.0078 5.69678 14.0078H35.4034C36.0934 14.0078 36.6534 14.5678 36.6534 15.2578C36.6534 15.9478 36.0934 16.5078 35.4034 16.5078Z" fill="#B2B3B4"/>
<path fill-rule="evenodd" clip-rule="evenodd" d="M27.9613 23.0166C27.2713 23.0166 26.7046 22.4566 26.7046 21.7666C26.7046 21.0766 27.2563 20.5166 27.9463 20.5166H27.9613C28.6513 20.5166 29.2113 21.0766 29.2113 21.7666C29.2113 22.4566 28.6513 23.0166 27.9613 23.0166Z" fill="#B2B3B4"/>
<path fill-rule="evenodd" clip-rule="evenodd" d="M20.5653 23.0166C19.8753 23.0166 19.3086 22.4566 19.3086 21.7666C19.3086 21.0766 19.8603 20.5166 20.5503 20.5166H20.5653C21.2553 20.5166 21.8153 21.0766 21.8153 21.7666C21.8153 22.4566 21.2553 23.0166 20.5653 23.0166Z" fill="#B2B3B4"/>
<path fill-rule="evenodd" clip-rule="evenodd" d="M13.1538 23.0166C12.4638 23.0166 11.8955 22.4566 11.8955 21.7666C11.8955 21.0766 12.4488 20.5166 13.1388 20.5166H13.1538C13.8438 20.5166 14.4038 21.0766 14.4038 21.7666C14.4038 22.4566 13.8438 23.0166 13.1538 23.0166Z" fill="#B2B3B4"/>
<path fill-rule="evenodd" clip-rule="evenodd" d="M27.9613 29.4941C27.2713 29.4941 26.7046 28.9341 26.7046 28.2441C26.7046 27.5541 27.2563 26.9941 27.9463 26.9941H27.9613C28.6513 26.9941 29.2113 27.5541 29.2113 28.2441C29.2113 28.9341 28.6513 29.4941 27.9613 29.4941Z" fill="#B2B3B4"/>
<path fill-rule="evenodd" clip-rule="evenodd" d="M20.5653 29.4941C19.8753 29.4941 19.3086 28.9341 19.3086 28.2441C19.3086 27.5541 19.8603 26.9941 20.5503 26.9941H20.5653C21.2553 26.9941 21.8153 27.5541 21.8153 28.2441C21.8153 28.9341 21.2553 29.4941 20.5653 29.4941Z" fill="#B2B3B4"/>
<path fill-rule="evenodd" clip-rule="evenodd" d="M13.1538 29.4941C12.4638 29.4941 11.8955 28.9341 11.8955 28.2441C11.8955 27.5541 12.4488 26.9941 13.1388 26.9941H13.1538C13.8438 26.9941 14.4038 27.5541 14.4038 28.2441C14.4038 28.9341 13.8438 29.4941 13.1538 29.4941Z" fill="#B2B3B4"/>
<path fill-rule="evenodd" clip-rule="evenodd" d="M27.2817 9.65199C26.5917 9.65199 26.0317 9.09199 26.0317 8.40199V2.91699C26.0317 2.22699 26.5917 1.66699 27.2817 1.66699C27.9717 1.66699 28.5317 2.22699 28.5317 2.91699V8.40199C28.5317 9.09199 27.9717 9.65199 27.2817 9.65199Z" fill="#B2B3B4"/>
<path fill-rule="evenodd" clip-rule="evenodd" d="M13.8179 9.65199C13.1279 9.65199 12.5679 9.09199 12.5679 8.40199V2.91699C12.5679 2.22699 13.1279 1.66699 13.8179 1.66699C14.5079 1.66699 15.0679 2.22699 15.0679 2.91699V8.40199C15.0679 9.09199 14.5079 9.65199 13.8179 9.65199Z" fill="#B2B3B4"/>
<mask id="mask0_57_2904" style="mask-type:luminance" maskUnits="userSpaceOnUse" x="4" y="4" width="33" height="34">
<path fill-rule="evenodd" clip-rule="evenodd" d="M4.29248 4.29883H36.7925V37.5003H4.29248V4.29883Z" fill="white"/>
</mask>
<g mask="url(#mask0_57_2904)">
<path fill-rule="evenodd" clip-rule="evenodd" d="M13.4941 6.79883C9.17248 6.79883 6.79248 9.10383 6.79248 13.2888V28.3705C6.79248 32.6472 9.17248 35.0005 13.4941 35.0005H27.5908C31.9125 35.0005 34.2925 32.6905 34.2925 28.4972V13.2888C34.2991 11.2305 33.7458 9.63049 32.6475 8.53049C31.5175 7.39716 29.7758 6.79883 27.6058 6.79883H13.4941ZM27.5908 37.5005H13.4941C7.81915 37.5005 4.29248 34.0022 4.29248 28.3705V13.2888C4.29248 7.74216 7.81915 4.29883 13.4941 4.29883H27.6058C30.4541 4.29883 32.8092 5.15216 34.4175 6.76383C35.9792 8.33216 36.8008 10.5872 36.7925 13.2922V28.4972C36.7925 34.0505 33.2658 37.5005 27.5908 37.5005Z" fill="#B2B3B4"/>
</g>
</svg>
