<svg width="41" height="40" viewBox="0 0 41 40" fill="none" xmlns="http://www.w3.org/2000/svg">
<mask id="mask0_57_2932" style="mask-type:luminance" maskUnits="userSpaceOnUse" x="4" y="1" width="35" height="37">
<path fill-rule="evenodd" clip-rule="evenodd" d="M4.29248 1.66699H38.4588V37.5087H4.29248V1.66699Z" fill="white"/>
</mask>
<g mask="url(#mask0_57_2932)">
<path fill-rule="evenodd" clip-rule="evenodd" d="M23.8203 25.4857C25.827 25.4857 27.4603 27.1074 27.4603 29.1007V34.2274C27.4603 34.6557 27.8037 34.9991 28.2437 35.0091H31.4203C33.9237 35.0091 35.9587 32.9991 35.9587 30.5291V15.9891C35.947 15.1391 35.542 14.3391 34.847 13.8074L23.8587 5.04408C22.3837 3.87574 20.3203 3.87574 18.8403 5.04741L7.92699 13.8041C7.20533 14.3524 6.80033 15.1524 6.79199 16.0174V30.5291C6.79199 32.9991 8.82699 35.0091 11.3303 35.0091H14.537C14.9887 35.0091 15.3553 34.6507 15.3553 34.2107C15.3553 34.1141 15.367 34.0174 15.387 33.9257V29.1007C15.387 27.1191 17.0103 25.4991 19.002 25.4857H23.8203ZM31.4203 37.5091H28.2137C26.377 37.4657 24.9603 36.0241 24.9603 34.2274V29.1007C24.9603 28.4857 24.4487 27.9857 23.8203 27.9857H19.0103C18.3953 27.9891 17.887 28.4907 17.887 29.1007V34.2107C17.887 34.3357 17.8703 34.4557 17.8353 34.5691C17.6553 36.2191 16.2453 37.5091 14.537 37.5091H11.3303C7.44866 37.5091 4.29199 34.3774 4.29199 30.5291V16.0057C4.30866 14.3491 5.07199 12.8324 6.39033 11.8341L17.282 3.09241C19.6803 1.19241 23.022 1.19241 25.4153 3.08908L36.3853 11.8391C37.6737 12.8207 38.437 14.3341 38.4587 15.9707V30.5291C38.4587 34.3774 35.302 37.5091 31.4203 37.5091Z" fill="#B2B3B4"/>
</g>
</svg>
