<svg width="21" height="17" viewBox="0 0 21 17" fill="none" xmlns="http://www.w3.org/2000/svg">
<path d="M9.55852 9.42877L2.6499 16.1936L18.1665 1" stroke="black" stroke-width="0.5" stroke-linecap="round" stroke-linejoin="round"/>
<path d="M10.4066 11.4676C12.0242 11.4676 13.3356 10.1835 13.3356 8.5995C13.3356 7.01552 12.0242 5.73145 10.4066 5.73145C8.78891 5.73145 7.47754 7.01552 7.47754 8.5995C7.47754 10.1835 8.78891 11.4676 10.4066 11.4676Z" stroke="black" stroke-width="0.5" stroke-linecap="round" stroke-linejoin="round"/>
<path d="M1 8.59692C3.36742 5.29747 7.52131 4.14551 10.4068 4.14551" stroke="black" stroke-width="0.5" stroke-miterlimit="10" stroke-linecap="round"/>
<path d="M19.8179 8.59706C17.4456 5.29761 13.2965 4.15039 10.4062 4.15039" stroke="black" stroke-width="0.5" stroke-miterlimit="10" stroke-linecap="round"/>
<path d="M1 8.59766C3.37227 11.8971 7.52131 13.0443 10.4116 13.0443" stroke="black" stroke-width="0.5" stroke-miterlimit="10" stroke-linecap="round"/>
<path d="M19.8179 8.59766C17.4456 11.8971 13.2965 13.0443 10.4062 13.0443" stroke="black" stroke-width="0.5" stroke-miterlimit="10" stroke-linecap="round"/>
</svg>
