<svg width="14" height="8" viewBox="0 0 14 8" fill="none" xmlns="http://www.w3.org/2000/svg">
<path d="M6.56386 7.81106L0.166377 1.02225C0.0595781 0.908977 0 0.758483 0 0.601985C0 0.445487 0.0595781 0.294995 0.166377 0.18172L0.173606 0.174411C0.22538 0.119307 0.2877 0.0754294 0.356775 0.0454459C0.42585 0.0154624 0.500235 4.76837e-07 0.575407 4.76837e-07C0.650578 4.76837e-07 0.724963 0.0154624 0.794038 0.0454459C0.863113 0.0754294 0.925433 0.119307 0.977207 0.174411L7.0012 6.56732L13.0228 0.174411C13.0746 0.119307 13.1369 0.0754294 13.206 0.0454459C13.275 0.0154624 13.3494 4.76837e-07 13.4246 4.76837e-07C13.4998 4.76837e-07 13.5741 0.0154624 13.6432 0.0454459C13.7123 0.0754294 13.7746 0.119307 13.8264 0.174411L13.8336 0.18172C13.9404 0.294995 14 0.445487 14 0.601985C14 0.758483 13.9404 0.908977 13.8336 1.02225L7.43614 7.81106C7.37988 7.87077 7.31221 7.9183 7.23724 7.95078C7.16227 7.98325 7.08156 8 7 8C6.91844 8 6.83773 7.98325 6.76276 7.95078C6.68779 7.9183 6.62012 7.87077 6.56386 7.81106Z" fill="black"/>
</svg>
