<svg width="21" height="11" viewBox="0 0 21 11" fill="none" xmlns="http://www.w3.org/2000/svg">
<path d="M10.4066 8.46756C12.0242 8.46756 13.3356 7.18349 13.3356 5.5995C13.3356 4.01552 12.0242 2.73145 10.4066 2.73145C8.78891 2.73145 7.47754 4.01552 7.47754 5.5995C7.47754 7.18349 8.78891 8.46756 10.4066 8.46756Z" stroke="black" stroke-width="0.5" stroke-linecap="round" stroke-linejoin="round"/>
<path d="M1 5.59692C3.36742 2.29747 7.52131 1.14551 10.4068 1.14551" stroke="black" stroke-width="0.5" stroke-miterlimit="10" stroke-linecap="round"/>
<path d="M19.8179 5.59706C17.4456 2.29761 13.2965 1.15039 10.4062 1.15039" stroke="black" stroke-width="0.5" stroke-miterlimit="10" stroke-linecap="round"/>
<path d="M1 5.59766C3.37227 8.89711 7.52131 10.0443 10.4116 10.0443" stroke="black" stroke-width="0.5" stroke-miterlimit="10" stroke-linecap="round"/>
<path d="M19.8179 5.59766C17.4456 8.89711 13.2965 10.0443 10.4062 10.0443" stroke="black" stroke-width="0.5" stroke-miterlimit="10" stroke-linecap="round"/>
</svg>
