<svg width="20" height="21" viewBox="0 0 20 21" fill="none" xmlns="http://www.w3.org/2000/svg">
<path fill-rule="evenodd" clip-rule="evenodd" d="M15.2332 8.11658C15.2332 9.85324 14.6473 11.4608 13.6585 12.7473C13.6751 12.7619 13.6913 12.7771 13.7071 12.7929L19.7071 18.7929C20.0976 19.1834 20.0976 19.8166 19.7071 20.2071C19.3166 20.5976 18.6834 20.5976 18.2929 20.2071L12.2929 14.2071C12.2771 14.1913 12.2619 14.1751 12.2473 14.1585C10.9608 15.1473 9.35324 15.7332 7.61658 15.7332C3.40989 15.7332 0 12.3233 0 8.11658C0 3.90989 3.40989 0.5 7.61658 0.5C11.8233 0.5 15.2332 3.90989 15.2332 8.11658ZM2.34356 8.11658C2.34356 11.0343 4.69885 13.3896 7.61658 13.3896C10.5343 13.3896 12.8896 11.0343 12.8896 8.11658C12.8896 5.19885 10.5343 2.84356 7.61658 2.84356C4.69885 2.84356 2.34356 5.19885 2.34356 8.11658Z" fill="black" fill-opacity="0.87"/>
</svg>
