<svg width="67" height="29" viewBox="0 0 67 29" fill="none" xmlns="http://www.w3.org/2000/svg">
<path d="M22.9728 0C12.9898 7.8548e-09 7.05097 5.80435 3.09722 8.24829C-2.35254 14.0528 0.532628 18.0239 3.09722 21.3843C5.66181 24.7448 9.14291 23.7449 12.9898 22.2175C16.8367 20.69 20.4402 15.7211 25.5694 15.7211C30.6986 15.7211 29.8703 17.3296 35.9612 22.2175C42.0521 27.1053 53.5361 29.9393 59.1977 28.7162C65.2225 27.4145 67 25.5349 67 19.1195C67 13.1024 60.0636 10.7883 53.011 11.7048C48.362 12.3089 41.5674 4.67736 41.5674 4.67736C41.5674 4.67736 36.9973 0 22.9728 0Z" fill="#366943"/>
</svg>
